#format: frame checksums
#version: 2
#hash: MD5
#tb 0: 1/48000
#media_type 0: audio
#codec_id 0: pcm_s16le
#sample_rate 0: 48000
#channel_layout_name 0: mono
#stream#, dts,        pts, duration,     size, hash
0,          0,          0,      240,      480, 2a6d62e7431fea12a27e9d3389040d7e
0,        240,        240,      240,      480, d1a5dd2b9b177d289dc44ce543a80f1c
0,        480,        480,      240,      480, 121e2168d475f539496bc3c15d620a8e
0,        720,        720,      240,      480, 301b1042ec525a57bef9b24777d4b190
0,        960,        960,      240,      480, ce86c8dacf349e396e616de293e30638
0,       1200,       1200,      240,      480, bf20ebda9cfd4b9f1a31b53d27c42acf
0,       1440,       1440,      240,      480, b6d0cda910be5a8dc2e0cb9514a00ce1
0,       1680,       1680,      240,      480, 5c1271991432e5058288daff9b08a9f2
0,       1920,       1920,      240,      480, 66bead425408458854c17313216fb4ae
0,       2160,       2160,      240,      480, 40ce60bde65312cc224782c828bcf71b
0,       2400,       2400,      240,      480, 3d6e90c679af758b70d54cbbed91cd8d
0,       2640,       2640,      240,      480, e58e283b5127f753d1bff01a9de6582e
0,       2880,       2880,      240,      480, dc8c79e7f0c298be685a9be6f2f2008d
0,       3120,       3120,      240,      480, 116f4b008cb92dfafac7c66f140f6744
0,       3360,       3360,      240,      480, 666af0b47d3aa9f2544401d0334810c6
0,       3600,       3600,      240,      480, eba04e2d78968ca03070bfb524e57725
0,       3840,       3840,      240,      480, 566de8af8795411e5dacb17cba4bdfb5
0,       4080,       4080,      240,      480, b411ec53a5d4614c8dbb589b0bc96126
0,       4320,       4320,      240,      480, f6428fa0e509c2025abb5c33d5900fa6
0,       4560,       4560,      240,      480, ad7d943c5ed77dfad8ec2392c138e2b4
0,       4800,       4800,      240,      480, f4bd843a3eecac15fc8d72bc0915d78a
0,       5040,       5040,      240,      480, f4c29f8f6b35a2fe63e0b45aea5ef14f
0,       5280,       5280,      240,      480, cbbc14b65f4c682248714c57b92eb64a
0,       5520,       5520,      240,      480, 4224c4fe538196502008696b42d5b780
0,       5760,       5760,      240,      480, 3447a3333a59d4e3a7e7ef6f5102dd5e
0,       6000,       6000,      240,      480, 4d827068d77126ad19c63096bb98d0ee
0,       6240,       6240,      240,      480, 9e2e38aea46d7834c502054329b8131a
0,       6480,       6480,      240,      480, 1d0890ef016d685c854825a927a0123a
0,       6720,       6720,      240,      480, b3247ebf6ad595589d44876855f47825
0,       6960,       6960,      240,      480, 3a1cf881195c24516461e9a40873b554
0,       7200,       7200,      240,      480, 17e21e0e69fe220e7810a41dc3f1e138
0,       7440,       7440,      240,      480, 568eaaa32d9d6176a9103f1d600e2195
0,       7680,       7680,      240,      480, ede9cabecc5fe787eb99d4d72450628a
0,       7920,       7920,      240,      480, ceb134b9b11cfd7abbcd784e438e43c0
0,       8160,       8160,      240,      480, e8cd05f64a00daa4c2085467223c91a8
0,       8400,       8400,      240,      480, 5c46bb3066375c55cd1388fca37e1390
0,       8640,       8640,      240,      480, 9bbed84b4e6c27992515563535a94b98
0,       8880,       8880,      240,      480, c3a74a8a900db18f6ff2d8027fc6906b
0,       9120,       9120,      240,      480, 9d2ed835da3447d3abe48f5aad85c533
0,       9360,       9360,      240,      480, 19c62c4175fb2f0aa89ca6c29a8d80d9
0,       9600,       9600,      240,      480, ac73c610009f9c09f312908b692f2e67
0,       9840,       9840,      240,      480, 0d205a3b82f6235fc314cb4f87238289
0,      10080,      10080,      240,      480, 19af6cb2b586bb1319a2b7fb45736723
0,      10320,      10320,      240,      480, 71cbbe339aee43283153f570cddbf27e
0,      10560,      10560,      240,      480, 32de272e837001cf2a184fe7a0f6b20f
0,      10800,      10800,      240,      480, 044fb791d34e9fcaea3a99641553f47e
0,      11040,      11040,      240,      480, 80b2b1874ea7ba42b8c078277b3bc9f5
0,      11280,      11280,      240,      480, dc4e739da653c8ffc92e7d0d041d4255
0,      11520,      11520,      240,      480, 13bbc2400dc04a7b71a2c879331b74a9
0,      11760,      11760,      240,      480, 8b76dcda3c32467f33b3ce34e37e0c7e
0,      12000,      12000,      240,      480, fd6e2a92e97473741a39bb5668daa678
0,      12240,      12240,      240,      480, 5cec71b4b115a1f9f78d9fc01327c83f
0,      12480,      12480,      240,      480, c3375cb58d02a9de59c16418a729c931
0,      12720,      12720,      240,      480, a8dbab178e1db2338970f813101c62bd
0,      12960,      12960,      240,      480, 515f7248cdd8b679f13122224fefc84f
0,      13200,      13200,      240,      480, 0435acf06f612fbb6624eb4f375a8ac2
0,      13440,      13440,      240,      480, 5b463e5607f195babc2fa1babc7aa8fc
0,      13680,      13680,      240,      480, 50a7aa8e8266abe0e5baba803ecd9f58
0,      13920,      13920,      240,      480, 8a96a2e3e6fb585b55b902c927270147
0,      14160,      14160,      240,      480, dffd6af595767365439c9cd98a3b4643
0,      14400,      14400,      240,      480, 8e3b516181234baf98a22054634aa9c5
0,      14640,      14640,      240,      480, fc0c70443ecce02886e20cf25349df8d
0,      14880,      14880,      240,      480, 807a1d5dff8c73e8f51e1566e2064d39
0,      15120,      15120,      240,      480, 03063cb15a72a83216339e2a072eb2fa
0,      15360,      15360,      240,      480, 2c4969f1dedea8d23e84d49a83255993
0,      15600,      15600,      240,      480, 2fbac7cee495ad633964fb8f8bed6d80
0,      15840,      15840,      240,      480, 1f1acdebb291a58bc09cfe782367aea3
0,      16080,      16080,      240,      480, 097a6c02016ed5403d8073de05dcf274
0,      16320,      16320,      240,      480, 37c6096627c067af02af38798953479f
0,      16560,      16560,      240,      480, 7551a3eda3a405848148603cacd6f30d
0,      16800,      16800,      240,      480, ad7f85c58c0be9529c1d969119f1e0d7
0,      17040,      17040,      240,      480, 2d58752151b3dd0ea69a08a132e4c88f
0,      17280,      17280,      240,      480, c62041db72f080ac521cdc414ef836dc
0,      17520,      17520,      240,      480, 076b739bc79bcda5894e6962e80d7d93
0,      17760,      17760,      240,      480, 93739ff890542b1989469e4c87a2a52f
0,      18000,      18000,      240,      480, 4041431b47cb49673a0a42c91e7d12d6
0,      18240,      18240,      240,      480, a6f5d99a2d7eeed741bbb57066a6423e
0,      18480,      18480,      240,      480, 08a16dba5e5ec6f5812e35be55b92e69
0,      18720,      18720,      240,      480, fbe06b44adf66516f3fc740a2a323fff
0,      18960,      18960,      240,      480, ac24f735032d112c85b6b61c2f9692ee
0,      19200,      19200,      240,      480, 1b4770bf619548b345d02c541c5c8b3a
0,      19440,      19440,      240,      480, fab82fd46ffc82df9d63e8d98f6ef94b
0,      19680,      19680,      240,      480, 41cf12ef66cd0a11dea3e966360f1acd
0,      19920,      19920,      240,      480, e3eefc9610730869f34734429cc09d44
0,      20160,      20160,      240,      480, b08ca7dd2958baaeabe85768d9df02e9
0,      20400,      20400,      240,      480, 97ddd0c21c1f49c859ce3c1a0040c4e2
0,      20640,      20640,      240,      480, b81c21026287b173296d4092bb776f26
0,      20880,      20880,      240,      480, 635e671255ba63d2caa24776d3395031
0,      21120,      21120,      240,      480, 8428769e9ed2aa5f5ee231776ebb90a7
0,      21360,      21360,      240,      480, 100e470404ea11fefe045c160199ce07
0,      21600,      21600,      240,      480, 0360a50c6c4697064b3aa9abf24bd428
0,      21840,      21840,      240,      480, 86d7b2cbbe1da47f675ec734ed7c6d81
0,      22080,      22080,      240,      480, c97bbb52c584fc741dab8bc73563d7ef
0,      22320,      22320,      240,      480, e4e92a64e48e82f47cdbbc52dc09c71f
0,      22560,      22560,      240,      480, 6236408db3b8034e37d276c52d5fdacd
0,      22800,      22800,      240,      480, a5b2741ccb01b2cbd57a841013cfa337
0,      23040,      23040,      240,      480, d62e12c4f4d69628ea9fc3bb6a44d5b1
0,      23280,      23280,      240,      480, 0acde255d19c0deb76d3c8f032838708
0,      23520,      23520,      240,      480, 419aa020a5074b84f82f460c57b7578d
0,      23760,      23760,      240,      480, 6c42b213acdd1a53d33f6c93a3010dd8
